<svg width="18" height="18" viewBox="0 0 18 18" fill="none" xmlns="http://www.w3.org/2000/svg">
<g clip-path="url(#clip0_87_4375)">
<path fill-rule="evenodd" clip-rule="evenodd" d="M18 18H14.3031V11.7C14.3031 9.97269 13.6454 9.00692 12.2815 9.00692C10.7931 9.00692 10.0177 10.0108 10.0177 11.7V18H6.45231V5.99885H10.0177V7.61539C10.0177 7.61539 11.0908 5.63192 13.635 5.63192C16.1792 5.63192 18.0035 7.18615 18.0035 10.4019V18H18ZM2.19808 4.42731C0.983077 4.42731 0 3.43731 0 2.21192C0 0.986538 0.983077 0 2.19808 0C3.41308 0 4.39615 0.99 4.39615 2.21538C4.39615 3.44077 3.41308 4.43077 2.19808 4.43077V4.42731ZM0.356538 18H4.07423V5.99885H0.356538V18Z" fill="white"/>
</g>
<defs>
<clipPath id="clip0_87_4375">
<rect width="18" height="18" fill="white"/>
</clipPath>
</defs>
</svg>
