<svg width="18" height="18" viewBox="0 0 18 18" fill="none" xmlns="http://www.w3.org/2000/svg"><g clip-path="url(#clip0_87_4324)"><path fill-rule="evenodd" clip-rule="evenodd" d="M.11.154c.06.084 1.465 2.08 3.12 4.435l3.403 4.84c.216.307.392.564.392.572 0 .007-.08.104-.178.215a396.963 396.963 0 00-1.514 1.718l-.996 1.13-1.17 1.329-2.066 2.348c-.441.502-.864.981-.94 1.066a1.06 1.06 0 00-.138.173c0 .013.277.02.78.02h.78l.858-.976 1.035-1.175a764.385 764.385 0 002.11-2.398l.7-.793c.344-.393.636-.724.647-.736.012-.011.194-.219.406-.46.211-.242.39-.44.399-.44.008 0 1.094 1.537 2.414 3.415l2.453 3.488.053.074h2.676c2.2.001 2.674-.004 2.666-.025-.01-.023-1.291-1.85-4.58-6.526-2.369-3.366-2.684-3.819-2.675-3.841.01-.023.332-.391 2.452-2.801a2415.412 2415.412 0 001.674-1.902l.68-.773A2603.997 2603.997 0 0117.395.034C17.421.002 17.376 0 16.63 0h-.793l-.352.401a975.972 975.972 0 01-2.098 2.383c-.079.088-.476.54-.882 1.002a113.126 113.126 0 01-.945 1.072c-.174.201-.351.403-1.165 1.324-.357.405-.375.422-.405.385-.017-.022-1.064-1.508-2.325-3.303L5.37 0H0l.11.154zm2.096 1.07A76347.165 76347.165 0 0111.71 14.51c.909 1.27 1.663 2.32 1.677 2.335.02.02.284.023 1.236.02l1.21-.006-3.169-4.43-5.609-7.84-2.44-3.41-1.222-.006L2.17 1.17l.036.055" fill="#FAFAFA"/></g><defs><clipPath id="clip0_87_4324"><path fill="#fff" d="M0 0h18v18H0z"/></clipPath></defs></svg>